DataType=double
version=3
OpenSimVersion=4.1
endheader
time	pelvis_tilt	pelvis_list	pelvis_rotation	pelvis_tx	pelvis_ty	pelvis_tz	hip_flexion_r	hip_adduction_r	hip_rotation_r	knee_angle_r	knee_angle_r_beta	ankle_angle_r	subtalar_angle_r	mtp_angle_r	hip_flexion_l	hip_adduction_l	hip_rotation_l	knee_angle_l	knee_angle_l_beta	ankle_angle_l	subtalar_angle_l	mtp_angle_l	lumbar_extension	lumbar_bending	lumbar_rotation	arm_flex_r	arm_add_r	arm_rot_r	elbow_flex_r	pro_sup_r	wrist_flex_r	wrist_dev_r	arm_flex_l	arm_add_l	arm_rot_l	elbow_flex_l	pro_sup_l	wrist_flex_l	wrist_dev_l
6.069999999999915	-0.1011371679925113	0.05441978753863522	-0.8079218975685866	0	0.9399999999999999	0	0.4527681733389812	-0.116774993725079	-0.3776655665344503	0.0232088429271186	0.0232088429271186	0.03540275760828205	0	0	0.1040720564030514	0.004432464119229766	-0.4766268051751529	0.0008055553457348142	0.0008055553457348142	0.1462391391919161	0	0	0	0	0	0	-0.2617992691348826	0	1.309000008089528	0.7853981678539818	0	0	0	-0.2617992691348826	0	1.309000008089528	0.7853981678539818	0	0
6.079999999999915	-0.1001765774501634	0.05651432800510972	-0.8107702025272594	0	0.9399999999999999	0	0.4497452731699754	-0.1177679777387211	-0.3922002126494585	0.01533025937949396	0.01533025937949396	0.03762964757231366	0	0	0.1019659482352884	0.005243794882774868	-0.4794457996541038	0.0008089167113000898	0.0008089167113000898	0.146692949052565	0	0	0	0	0	0	-0.2617992691837643	0	1.309000008089528	0.7853981678539818	0	0	0	-0.2617992691837643	0	1.309000008089528	0.7853981678539818	0	0
6.089999999999915	-0.09917257071053907	0.05886943994679959	-0.8130478331447181	0	0.9399999999999999	0	0.4477847491632902	-0.1197371998137689	-0.4062677584983624	0.01012524652131064	0.01012524652131064	0.04138285819300578	0	0	0.09990399307627958	0.006073403809903871	-0.4820752556179768	0.0008162392050048161	0.0008162392050048161	0.1467101726861823	0	0	0	0	0	0	-0.261799269224452	0	1.309000008089528	0.7853981678539818	0	0	0	-0.261799269224452	0	1.309000008089528	0.7853981678539818	0	0
6.099999999999914	-0.0980917174051297	0.06116859592824495	-0.8149965434726075	0	0.9399999999999999	0	0.4462124509658423	-0.1224588613084679	-0.4199267767285099	0.00682816723074602	0.00682816723074602	0.04613189175484821	0	0	0.09779421662335998	0.006917194698866869	-0.4843049744105259	0.0008216503341516687	0.0008216503341516687	0.1469904304885144	0	0	0	0	0	0	-0.2617992692629951	0	1.309000008089529	0.7853981678539818	0	0	0	-0.2617992692629951	0	1.309000008089529	0.7853981678539818	0	0
6.109999999999914	-0.09671488367935685	0.06330954043027347	-0.8162166145252228	0	0.9399999999999999	0	0.4445298503786899	-0.1258308557734753	-0.4336780488573495	0.005026204174133448	0.005026204174133448	0.05135814225052704	0	0	0.09514703205686498	0.007701086873056526	-0.486158895972234	0.0008309680471631367	0.0008309680471631367	0.1473362699050084	0	0	0	0	0	0	-0.2617992693097969	0	1.309000008089529	0.7853981678539818	0	0	0	-0.2617992693097969	0	1.309000008089529	0.7853981678539818	0	0
6.119999999999914	-0.0952043638646405	0.06580207291858155	-0.8168974121748516	0	0.9399999999999999	0	0.4430099359748123	-0.1293286003435155	-0.4470931174633169	0.003966285991623322	0.003966285991623322	0.05656120676248171	0	0	0.09259768660189809	0.008896229777800781	-0.4876656998403981	0.0008450574148806049	0.0008450574148806049	0.1475961292048467	0	0	0	0	0	0	-0.2617992693522646	0	1.309000008089529	0.7853981678539818	0	0	0	-0.2617992693522646	0	1.309000008089529	0.7853981678539818	0	0
6.129999999999914	-0.09369342181141538	0.0682142606843425	-0.8170761342670612	0	0.9399999999999999	0	0.4409082892678743	-0.1329983531927289	-0.4601246855207585	0.003288423449234526	0.003288423449234526	0.06107609330238494	0	0	0.09010635297071977	0.01007804356587132	-0.4887142614987566	0.0008608897273968575	0.0008608897273968575	0.1478051119084752	0	0	0	0	0	0	-0.2617992693905214	0	1.309000008089529	0.7853981678539818	0	0	0	-0.2617992693905214	0	1.309000008089529	0.7853981678539818	0	0
6.139999999999914	-0.0917578978550791	0.0704852726442915	-0.8165751150279881	0	0.9399999999999999	0	0.4374607402202515	-0.1373699036480268	-0.4728408192276259	0.002848966752945606	0.002848966752945606	0.06459382651257513	0	0	0.08690445542763005	0.01136103193337412	-0.4894983311628699	0.0008800678879915877	0.0008800678879915877	0.1476969985847044	0	0	0	0	0	0	-0.2617992694302961	0	1.309000008089529	0.7853981678539818	0	0	0	-0.2617992694302961	0	1.309000008089529	0.7853981678539818	0	0
6.149999999999913	-0.08979686617659857	0.07269134930645305	-0.8157149911224849	0	0.9399999999999999	0	0.4333195667696138	-0.1421283802948844	-0.4842401945495148	0.00262604068138109	0.00262604068138109	0.06751278331288718	0	0	0.08374734745531458	0.01259646773907116	-0.4904578534727669	0.0008839070067053196	0.0008839070067053196	0.1482246977191606	0	0	0	0	0	0	-0.2617992694977055	0	1.30900000808953	0.7853981678539818	0	0	0	-0.2617992694977055	0	1.30900000808953	0.7853981678539818	0	0
6.159999999999913	-0.08769609039954958	0.07508250281739569	-0.8145243006478237	0	0.9399999999999999	0	0.4287401440349466	-0.1470636677511359	-0.4942924125241011	0.002390521936917842	0.002390521936917842	0.06993742662911859	0	0	0.08049544602277313	0.01395810742625446	-0.4913080280521167	0.0009038556131412211	0.0009038556131412211	0.1484673746197626	0	0	0	0	0	0	-0.2617992695489914	0	1.30900000808953	0.7853981678539818	0	0	0	-0.2617992695489914	0	1.30900000808953	0.7853981678539818	0	0
6.169999999999913	-0.085506679243206	0.07731677495966746	-0.8128487415253023	0	0.9399999999999999	0	0.4234000759692192	-0.1518172963319677	-0.5032483323063077	0.002235183971868471	0.002235183971868471	0.07208326350193689	0	0	0.07691713075809896	0.01530159166237656	-0.4919957892048143	0.0009201431493949669	0.0009201431493949669	0.1489609791223088	0	0	0	0	0	0	-0.2617992695950114	0	1.309000008089531	0.7853981678539818	0	0	0	-0.2617992695950114	0	1.309000008089531	0.7853981678539818	0	0
6.179999999999913	-0.08320762124122716	0.07957108220346817	-0.8109882731097179	0	0.9399999999999999	0	0.4171061666116608	-0.1565276131231021	-0.51090220982652	0.002159808683823423	0.002159808683823423	0.07349311485749437	0	0	0.07313466480597765	0.01669764955662752	-0.4924678116123268	0.0009398434004912323	0.0009398434004912323	0.1494039967480536	0	0	0	0	0	0	-0.2617992696370667	0	1.309000008089531	0.7853981678539818	0	0	0	-0.2617992696370667	0	1.309000008089531	0.7853981678539818	0	0
6.189999999999912	-0.08099638323081564	0.08179756274800633	-0.8088898940716391	0	0.9399999999999999	0	0.4104680642691451	-0.1605785097190975	-0.5174075733552894	0.002119930413348948	0.002119930413348948	0.07420077918840712	0	0	0.06913185404365556	0.01792388118100836	-0.492534938437263	0.000964576169988292	0.000964576169988292	0.1496969285321043	0	0	0	0	0	0	-0.2617992696632359	0	1.309000008089531	0.7853981678539818	0	0	0	-0.2617992696632359	0	1.309000008089531	0.7853981678539818	0	0
6.199999999999912	-0.07878593670829452	0.08406522840470149	-0.806741171083457	0	0.9399999999999999	0	0.40346783046702	-0.1644599975693597	-0.5222649606210626	0.002106436455035793	0.002106436455035793	0.07381588918200771	0	0	0.06498129026488073	0.01888407517800864	-0.4922440996067105	0.0009987195027748297	0.0009987195027748297	0.1496974177153109	0	0	0	0	0	0	-0.2617992696660127	0	1.309000008089531	0.7853981678539818	0	0	0	-0.2617992696660127	0	1.309000008089531	0.7853981678539818	0	0
